<svg t="1775287327175" class="icon" viewBox="0 0 1590 1024" version="1.1" xmlns="http://www.w3.org/2000/svg"
     p-id="15204" data-spm-anchor-id="a313x.search_index.0.i1.67da3a81NcrZBW" width="200" height="200">
    <path d="M254.089986 844.298894c-38.142184 0.849702-127.172085 38.694128-193.427064 81.941787-2.665305 10.109277-4.93844 20.145929-6.441759 29.913872a28.592113 28.592113 0 0 0 13.355575 28.715575 29.107745 29.107745 0 0 0 31.89651-0.864227c67.003007-46.377759 164.813163-88.688567 205.206695-89.589107 28.831773 9.840567 47.786667 19.03478 67.177305 34.409305-46.50122-51.759206-66.654411-67.090156-117.767262-84.527205z"
          fill="#020403" p-id="15205"></path>
    <path d="M996.991092 782.314213h109.756823c21.162667 0 38.323745 10.770156 38.323745 24.053106 0 13.28295-17.161078 24.053106-38.323745 24.053107h-5.105475c-21.162667 0-38.316482 10.770156-38.316483 24.045844 0 13.290213 17.153816 24.060369 38.316483 24.060368h235.955744c21.162667 0 38.316482 10.755631 38.316483 24.045844 0 13.28295-17.153816 24.053106-38.316483 24.053107h-283.553588-311.666383c-21.169929 0-38.316482-10.770156-38.316483-24.053107 0-13.290213 17.146553-24.045844 38.316483-24.045844h65.485163c21.162667 0 38.316482-10.770156 38.316482-24.060368 0-13.275688-17.153816-24.045844-38.316482-24.045844H496.196993c-21.155404 0-38.323745-10.770156-38.323745-24.053107 0-13.28295 17.16834-24.053106 38.323745-24.053106h500.794099zM173.607943 380.092823h35.338894c6.819404 0 12.331574 5.918865 12.331574 13.224851 0 7.291461-5.51217 13.210326-12.331574 13.210326h-1.641305c-6.819404 0-12.331574 5.911603-12.331575 13.195801 0 7.305986 5.51217 13.217589 12.331575 13.217589h75.964823c6.819404 0 12.338837 5.918865 12.338836 13.217589 0 7.291461-5.519433 13.210326-12.338836 13.210326H191.974582 91.637106c-6.819404 0-12.338837-5.918865-12.338836-13.210326 0-7.298723 5.519433-13.217589 12.338836-13.217589h21.082781c6.812142 0 12.338837-5.911603 12.338836-13.217589 0-7.284199-5.526695-13.195801-12.338836-13.195801H12.375149c-6.812142 0-12.338837-5.918865-12.338837-13.210326 0-7.305986 5.526695-13.224851 12.338837-13.224851h161.232794zM1463.659121 612.722383h35.331631c6.819404 0 12.346099 5.911603 12.346099 13.203064 0 7.305986-5.526695 13.217589-12.346099 13.217588h-1.641305c-6.804879 0-12.338837 5.911603-12.338837 13.210327s5.533957 13.217589 12.338837 13.217588h75.979347c6.812142 0 12.331574 5.911603 12.331575 13.210327 0 7.291461-5.519433 13.210326-12.331575 13.210326h-91.303035-100.344738c-6.804879 0-12.338837-5.918865-12.338837-13.210326 0-7.298723 5.533957-13.210326 12.338837-13.210327h21.08278c6.819404 0 12.346099-5.918865 12.3461-13.217588 0-7.298723-5.526695-13.210326-12.3461-13.210327h-100.344737c-6.804879 0-12.331574-5.911603-12.331575-13.217588 0-7.291461 5.526695-13.203064 12.331575-13.203064H1463.659121z"
          fill="#142A3B" p-id="15206"></path>
    <path d="M473.792454 1022.16261a29.151319 29.151319 0 0 1-21.910695-9.891404c-69.595688-79.581504-86.429957-97.127489-147.201816-117.854412-40.393532 0.900539-138.203688 43.211348-205.206695 89.589107a29.09322 29.09322 0 0 1-31.89651 0.864227 28.592113 28.592113 0 0 1-13.355575-28.715575c16.020879-104.244652 98.471035-232.607773 242.332142-274.773333 141.863943-269.348312 341.740028-443.980255 440.240113-519.146213-44.467745-64.076255-123.635291-78.702752-169.490156-81.542355-13.980142-0.893277-25.324028-11.547234-26.972595-25.309503-1.634043-13.769532 6.913816-26.747461 20.276652-30.821674 96.510184-29.296567 220.893504-12.977929 328.064908 40.320908 17.262752-8.685844 33.000397-15.694071 46.92244-20.864908C1015.611915 14.081816 1076.746894 0.087149 1127.925106 0.087149c85.754553 0 147.06383 40.233759 191.807546 126.249759 76.030184 7.603745 114.375716 26.115631 123.577192 59.174127 8.01044 28.897135-11.997504 55.092652-33.39983 70.016908a29.601589 29.601589 0 0 1-18.933106 5.061901c-82.907688-6.608794-170.928113 6.623319-266.908142 38.425418 5.744567 100.765957-32.288681 266.87183-55.274213 301.056a29.223943 29.223943 0 0 1-32.52834 11.489135 28.744624 28.744624 0 0 1-20.567149-27.480964c0-40.400794-23.610099-81.309957-68.273929-118.290156-21.845333-18.083404-36.224908-42.463319-41.686241-67.685674-203.652539 114.934922-372.34383 268.49861-448.134355 342.546156 18.845957 68.535376 42.964426 179.810043 45.02695 244.278468 0.849702 2.687092 1.299972 5.548482 1.299972 8.526071 0 16.035404-13.050553 27.502752-29.51444 28.708312h-0.624567z"
          fill="#2476FF" p-id="15207" data-spm-anchor-id="a313x.search_index.0.i0.67da3a81NcrZBW"
          class="selected"></path>
    <path d="M992.423035 91.637106a13.195801 13.195801 0 0 1-12.360624-8.460709 13.07234 13.07234 0 0 1 7.683632-16.877844c75.514553-28.258043 133.403234-41.417532 182.264737-41.417532 7.298723 0 13.210326 5.868028 13.210326 13.10139a13.144965 13.144965 0 0 1-13.210326 13.079603c-45.557106 0-100.504511 12.629333-172.918014 39.732653a13.537135 13.537135 0 0 1-4.669731 0.842439z"
          fill="#FFFFFF" p-id="15208"></path>
    <path d="M1269.142695 76.219007c7.131688 0.718979 13.587972 1.62678 20.05878 2.527319-14.372312-18.526411-30.037333-33.908199-47.358184-45.753191 9.651745 12.992454 18.88227 27.037957 27.299404 43.225872zM546.968511 34.060709c-4.836766 5.868028-7.574695 13.348312-6.637844 21.32244 1.648567 13.76227 12.992454 24.416227 26.972595 25.309503 30.727262 1.895489 76.269844 9.499234 116.445504 33.327206l2.447433-1.910014C650.377986 60.503149 592.271433 41.192397 546.968511 34.060709zM457.604539 740.649759c73.677163-71.992284 235.265816-219.027064 431.300085-332.749163-17.211915-17.052142-29.020596-38.033248-33.76295-59.907631C651.496397 462.913362 482.805106 616.47705 407.014582 690.539121c18.85322 68.528113 42.964426 179.80278 45.034212 244.271205 0.84244 2.694355 1.299972 5.555745 1.299972 8.526071 0 16.035404-13.050553 27.502752-29.528965 28.708312h-0.617305c-3.006638 0-5.846241-0.951376-8.693106-1.851915 10.784681 11.779631 22.898383 25.520113 37.372369 42.078412a29.151319 29.151319 0 0 0 21.910695 9.891404h0.624567c16.463887-1.20556 29.51444-12.672908 29.51444-28.708312 0-2.977589-0.443007-5.838979-1.299972-8.526071-2.062525-64.468426-26.180993-175.743092-45.02695-244.278468zM1443.309844 185.503773c-5.490383-19.710184-21.627461-34.147858-49.638582-44.278922 4.016113 26.558638-14.415887 50.277674-34.358468 64.185192a29.66695 29.66695 0 0 1-18.933106 5.069163c-82.900426-6.623319-170.920851 6.608794-266.900879 38.418156 5.744567 100.765957-32.288681 266.87183-55.281476 301.056-1.742979 2.578156-3.88539 4.785929-6.274723 6.630581 2.396596 9.157901 3.776454 18.344851 3.776454 27.49549a28.737362 28.737362 0 0 0 20.567149 27.480964 29.223943 29.223943 0 0 0 32.52834-11.489135c22.992794-34.18417 61.01878-200.290043 55.274213-301.056 95.980028-31.802099 184.000454-45.034213 266.908142-38.425418 6.53617 0.530156 13.384624-1.256397 18.933106-5.061901 21.402326-14.924255 41.41027-41.119773 33.39983-70.02417z"
          fill="#020403" p-id="15209"></path>
    <path d="M397.144965 589.707801c-2.345759 0-4.720567-0.617305-6.892029-1.917276a13.028766 13.028766 0 0 1-4.386496-17.988993c7.640057-12.447773 189.011518-304.948652 323.213617-329.742525 7.044539-1.314496 14.067291 3.347972 15.403574 10.472397a13.079603 13.079603 0 0 1-10.552283 15.265589c-122.683915 22.658723-303.70678 314.680284-305.515121 317.628823a13.203064 13.203064 0 0 1-11.271262 6.281985z"
          fill="#FFFFFF" p-id="15210"></path>
</svg>